<?xml version="1.0" encoding="UTF-8" standalone="no"?>
<svg
   xmlns:dc="http://purl.org/dc/elements/1.1/"
   xmlns:cc="http://creativecommons.org/ns#"
   xmlns:rdf="http://www.w3.org/1999/02/22-rdf-syntax-ns#"
   xmlns:svg="http://www.w3.org/2000/svg"
   xmlns="http://www.w3.org/2000/svg"
   xmlns:sodipodi="http://sodipodi.sourceforge.net/DTD/sodipodi-0.dtd"
   xmlns:inkscape="http://www.inkscape.org/namespaces/inkscape"
   width="120"
   height="53"
   version="1.1"
   id="svg4"
   sodipodi:docname="skype__logo.svg"
   inkscape:version="0.92.5 (2060ec1f9f, 2020-04-08)">
  <metadata
     id="metadata10">
    <rdf:RDF>
      <cc:Work
         rdf:about="">
        <dc:format>image/svg+xml</dc:format>
        <dc:type
           rdf:resource="http://purl.org/dc/dcmitype/StillImage" />
        <dc:title></dc:title>
      </cc:Work>
    </rdf:RDF>
  </metadata>
  <defs
     id="defs8" />
  <sodipodi:namedview
     pagecolor="#ffffff"
     bordercolor="#666666"
     borderopacity="1"
     objecttolerance="10"
     gridtolerance="10"
     guidetolerance="10"
     inkscape:pageopacity="0"
     inkscape:pageshadow="2"
     inkscape:window-width="1320"
     inkscape:window-height="704"
     id="namedview6"
     showgrid="false"
     inkscape:zoom="2.8916667"
     inkscape:cx="60"
     inkscape:cy="30"
     inkscape:window-x="46"
     inkscape:window-y="27"
     inkscape:window-maximized="1"
     inkscape:current-layer="svg4" />
  <path
     d="m 119.67799,17.154362 c 0,-3.622653 -2.93729,-6.557362 -6.56509,-6.557362 -1.87188,0 -3.55567,0.77297 -4.75377,2.041929 -2.77496,-1.927272 -6.14511,-3.060961 -9.77807,-3.060961 a 17.069755,17.069755 0 0 0 -9.857945,3.124087 c -1.258652,-1.159455 -2.933421,-1.873164 -4.766648,-1.873164 -1.369445,0 -2.648711,0.396791 -3.730869,1.074428 C 77.655473,7.336355 72.753555,4.245763 67.149522,4.245763 A 14.995618,14.995618 0 0 0 54.785867,10.738711 12.431934,12.431934 0 0 0 45.858063,6.969194 12.406169,12.406169 0 0 0 39.524862,8.709665 c -0.04122,-4.413659 -3.632959,-7.9796275 -8.062077,-7.9796275 -4.454884,0 -8.064654,3.6071935 -8.064654,8.0556355 0,0.103063 0.01031,0.206126 0.01288,0.309188 C 22.547861,8.966033 21.66281,8.896466 20.7623,8.896466 a 17.533537,17.533537 0 0 0 -7.3445,1.607777 C 12.165588,9.831759 10.735594,9.447851 9.2154196,9.447851 c -4.905783,0 -8.88529034,3.974354 -8.88529034,8.876272 0,2.59718 1.12467134,4.926396 2.90250244,6.549633 a 17.340294,17.340294 0 0 0 -0.076009,1.611642 c 0,9.713657 7.8817183,17.588933 17.6069693,17.588933 3.781111,0 7.278801,-1.194239 10.147808,-3.218132 2.581719,3.529897 6.745451,5.835924 11.457992,5.835924 0.115945,0 0.226738,-0.01288 0.340107,-0.01804 1.352697,3.841661 5.006269,6.599876 9.314288,6.599876 4.360839,0 8.058213,-2.829071 9.369685,-6.748029 1.494409,2.830359 4.466479,4.766649 7.890736,4.766649 4.287407,0 7.863681,-3.022313 8.721678,-7.04691 a 13.694452,13.694452 0 0 0 1.889912,0.145576 c 3.478365,0 6.663001,-1.321779 9.074668,-3.478365 a 17.082637,17.082637 0 0 0 9.623476,2.951457 c 9.474038,0 17.154778,-7.674304 17.154778,-17.138034 0,-1.172337 -0.11852,-2.313757 -0.34139,-3.417815 2.49927,-0.927564 4.28354,-3.323771 4.28354,-6.145112 z m -10.69275,-1.419688 v -0.724016 h 3.23101 v 0.724016 h -1.18007 v 3.207825 h -0.87088 v -3.207825 z m 4.90191,-0.724016 0.92242,2.705396 h 0.0103 l 0.87346,-2.705396 h 1.22 v 3.93313 h -0.81162 v -2.787846 h -0.0103 l -0.96622,2.787846 h -0.66733 l -0.96621,-2.760792 h -0.0103 v 2.760792 h -0.81161 v -3.93313 z m -20.050838,8.884003 c 0.685367,-3.040349 2.570125,-4.967621 5.698077,-4.967621 2.786561,0 4.927681,2.099902 5.271651,4.967621 z M 77.03452,33.183184 c -3.813318,0 -5.011422,-3.736022 -5.011422,-6.933541 0,-3.553086 1.370734,-6.851091 5.011422,-6.806001 3.343096,0.04123 4.972774,3.124087 4.972774,6.806001 0,2.91152 -0.986825,6.892315 -4.972774,6.933541 z m 33.68603,-8.39059 c 0,-5.136386 -4.11349,-10.22897 -11.311124,-10.22897 -6.142535,0 -10.216087,3.355978 -11.436092,8.644382 -1.069275,-5.85396 -5.0578,-8.644382 -9.524278,-8.644382 -3.040349,0 -5.567961,1.285707 -6.596011,3.938282 H 71.76673 V 17.51637 c 0,-1.924696 -0.985537,-2.954034 -2.830359,-2.954034 -1.350121,0 -2.186217,0.515313 -2.570125,1.484102 -0.450899,-0.753645 -1.305031,-1.484102 -2.785269,-1.484102 -1.713417,0 -2.571413,1.198103 -2.999123,2.782692 l -3.813319,14.171117 h -0.08503 L 52.653755,16.919894 C 52.269846,15.506648 51.11168,14.564912 49.440776,14.564912 a 3.0145831,3.0145831 0 0 0 -2.692512,1.607778 c -0.52562,-0.955906 -1.605201,-1.607778 -2.625522,-1.607778 -0.940446,0 -1.75593,0.515314 -2.398783,1.198104 L 34.780115,23.46695 V 9.254608 c 0,-2.054812 -1.241906,-3.124087 -3.127952,-3.124087 -1.886047,0 -3.127952,1.069275 -3.127952,3.124087 v 19.525223 c -1.017744,-2.973358 -4.508992,-4.15729 -7.49781,-4.843945 l -2.61135,-0.599052 c -1.929848,-0.42771 -3.344384,-0.77297 -3.344384,-2.22873 0,-1.326932 1.414536,-1.924696 3.600752,-1.924696 3.942148,0 4.028463,2.867719 6.471048,2.867719 1.629678,0 2.615215,-1.284418 2.615215,-2.73889 0,-2.867719 -4.798856,-4.753766 -9.556486,-4.753766 -4.328632,0 -9.383856,1.884759 -9.383856,6.977343 0,4.195939 2.827782,5.694212 6.471047,6.593434 l 3.684491,0.896645 c 2.22873,0.556539 3.598175,0.815484 3.598175,2.398784 0,1.28313 -1.413247,2.269955 -3.643265,2.269955 -4.624937,0 -4.895477,-3.851967 -7.584124,-3.851967 -1.7559305,0 -2.5276123,1.240617 -2.5276123,2.61135 0,3.081574 4.7125403,5.606609 10.3706813,5.606609 4.032327,0 8.219248,-1.732741 9.340054,-5.423673 v 2.299586 c 0,2.054812 1.243194,3.125376 3.127952,3.125376 1.884759,0 3.127952,-1.069276 3.127952,-3.125376 v -4.751189 l 2.186217,-1.925983 5.926103,8.348076 a 3.2078256,3.2078256 0 0 0 2.827782,1.45576 c 1.672192,0 2.957899,-1.45576 2.957899,-3.040349 0,-1.02805 -0.428998,-1.713417 -0.644142,-2.012298 l -6.512272,-8.734562 4.627514,-4.836215 c 0.190666,-0.206126 0.356854,-0.380044 0.499854,-0.566845 0.126251,0.422557 0.304035,0.924987 0.532061,1.593607 l 6.51356,18.534532 c -0.471511,1.927272 -1.372021,1.971074 -2.186216,1.971074 h -0.66089 c -1.672192,0 -2.872872,0.85542 -2.872872,2.525035 0,1.499562 1.156879,2.867719 3.942147,2.867719 3.942147,0 5.658141,-2.22873 7.157703,-6.505831 l 7.030162,-19.909131 v 23.281857 c 0,2.054812 1.241905,3.124087 3.126664,3.124087 1.884758,0 3.126663,-1.069275 3.126663,-3.124087 v -8.348076 h 0.09018 c 1.15559,2.012298 3.298006,3.169177 6.168301,3.169177 5.361835,0 8.376418,-3.701238 9.319442,-8.304275 1.056392,4.389182 4.568253,8.304275 11.682153,8.304275 3.769516,0 9.816716,-1.754642 9.816716,-5.521583 0,-1.15559 -1.07185,-2.441297 -2.57141,-2.441297 -2.5289,0 -2.5289,3.081574 -7.242729,3.081574 -3.641977,0 -5.797275,-2.396207 -5.797275,-5.694212 h 14.141484 c 2.0999,0 2.74147,-0.553962 2.74147,-2.696378 z"
     id="path2"
     inkscape:connector-curvature="0"
     style="fill:#02aff0;fill-rule:evenodd;stroke-width:1.28828335" />
</svg>
